<svg xmlns="http://www.w3.org/2000/svg" viewBox="0 0 36 36"><path fill="#99AAB5" fill-rule="evenodd" d="M12 3h12a2 2 0 0 1 2 2v6H10V5a2 2 0 0 1 2-2zm2 2.6v2.8h8V5.6z"/><rect x="16" y="7.5" width="4" height="4" rx="1" fill="#66757F"/><rect x="8.5" y="10" width="19" height="24" rx="7" fill="#DD2E44"/><rect x="10.5" y="13" width="2.2" height="17" rx="1.1" fill="#EA596E"/><rect x="8.5" y="18" width="19" height="8.5" fill="#F5F8FA"/><path fill="#F4900C" d="M18 18.8c2 2.2 3.2 3.9 3.2 5.4a3.2 3.2 0 0 1-6.4 0c0-1.5 1.2-3.2 3.2-5.4z"/><path fill="#FFCC4D" d="M18 22.2c.9 1 1.4 1.8 1.4 2.5a1.4 1.4 0 0 1-2.8 0c0-.7.5-1.5 1.4-2.5z"/><rect x="10" y="32" width="16" height="2.5" rx="1" fill="#A0041E"/></svg>
